<svg xmlns:xlink="http://www.w3.org/1999/xlink" xmlns="http://www.w3.org/2000/svg" aria-hidden="true" focusable="false" class="icon icon-pinterest" viewBox="0 0 768 768" width="768"  height="768" >
  <path fill="currentColor" d="m384,0C171.9,0,0,171.9,0,384s171.9,384,384,384,384-171.9,384-384S596.1,0,384,0Zm26.3,475c-24.6-1.9-35-14.1-54.2-25.8-10.6,55.6-23.6,109-62,136.9-11.9-84.2,17.4-147.3,31-214.4-23.2-39,2.8-117.4,51.6-98.2,60.1,23.8-52.1,145,23.2,160.2,78.6,15.8,110.8-136.5,62-185.9-70.5-71.5-205.1-1.6-188.5,100.7,4,25,29.9,32.6,10.3,67.1-45.1-10-58.6-45.6-56.8-93,2.8-77.6,69.7-132,136.8-139.4,84.9-9.4,164.6,31.2,175.6,111.1,12.4,90.2-38.4,187.7-129.1,180.7h0Z"></path>
</svg>